<?xml version="1.0" encoding="UTF-8"?>
<svg id="Layer_1" xmlns="http://www.w3.org/2000/svg" version="1.1" viewBox="0 0 566.93 283.46">
  <!-- Generator: Adobe Illustrator 29.4.0, SVG Export Plug-In . SVG Version: 2.1.0 Build 152)  -->
  <defs>
    <style>
      .st0 {
        fill: #1cb78d;
      }

      .st1 {
        fill: #fff;
      }

      .st2 {
        fill: #0f385a;
      }
    </style>
  </defs>
  <path class="st2" d="M158.28,162.5c-10.71,0-12.15-6.62-12.15-13.09v-25.83h14.63v-8.71h-14.63v-10.45h-9.75v10.45h-6.27v8.71h6.27v26.04c0,14.46,7.12,21.8,21.17,21.8,4.49,0,9.17-.72,13.17-2.02l.48-.16v-9.31l-.92.31c-4.63,1.54-8.45,2.26-12,2.26Z"/>
  <path class="st2" d="M214.89,114.04c-7.84,0-18.52,1.65-27.87,4.31l-.51.14v9.86l.92-.31c14.02-4.72,24.32-5.08,27.15-5.08,12.9,0,14.55,7.72,14.55,14.45v15.8c-6.88-10.42-16.79-21.52-32.83-21.52-14.53,0-19.71,8.83-19.71,17.1,0,14.7,15.32,22.63,29.74,22.63,7.53,0,14.44-1.84,20.55-5.48.76,1.3,1.47,2.62,2.34,4.27l.2.37h9.47v-34.75c0-9.94-4.16-21.8-23.99-21.8ZM206.95,162.5c-10.81,0-20.3-6.56-20.3-14.03,0-4.85,4.02-7.87,10.48-7.87,8.68,0,16.95,5.96,25.28,18.22-5.61,2.44-10.81,3.68-15.46,3.68Z"/>
  <path class="st2" d="M290.72,114.04c-15.31,0-23.66,11.96-30.96,30.28v-29.44h-9.75v74.52h9.75v-19.38c.33-.94.66-1.86.98-2.75.36-.99.71-1.95,1.04-2.91,5.23,4.7,11.62,7.08,19.01,7.08,17.97,0,31.51-14.27,31.51-33.18,0-14.93-8.27-24.2-21.59-24.2ZM302.25,137.82c0,14.13-9.56,25.2-21.76,25.2-3.92,0-9.8-1.19-15.79-6.8,9.15-24.17,15.95-32.75,25.92-32.75,7.39,0,11.63,5.23,11.63,14.34Z"/>
  <path class="st2" d="M335.29,115.35c0-5.75,1.38-12.36,12.15-12.36,3.56,0,7.37.72,12,2.26l.92.31v-9.31l-.48-.16c-3.95-1.28-8.71-2.02-13.06-2.02-13.74,0-20.9,7.31-21.26,21.73h-6.28v8.71h6.27v47.01h9.75v-47.01h14.62v-8.71h-14.62v-.45Z"/>
  <path class="st2" d="M463.27,114.87c-14.41,0-20.97,13.56-26.36,29.62v-29.62h-9.75v55.71h9.56l.16-.48c9.24-28.23,14.82-45.27,26.08-45.27,2.17,0,4.38.6,6.56,1.79l1.03.56v-11.08l-.48-.16c-2.15-.72-4.44-1.08-6.8-1.08Z"/>
  <path class="st2" d="M539.32,150.62c-11.03,7.82-21.02,11.47-31.46,11.47-8.11,0-14.32-2.33-18.05-6.74,19.69-3.29,41.73-9.21,41.73-25.15,0-10.12-8.07-16.16-21.59-16.16-16.91,0-34.02,10.21-34.02,29.74,0,16.79,12.45,27.65,31.72,27.65,11.38,0,22.3-3.45,32.45-10.25l.31-.21v-11.12l-1.1.78ZM509.54,122.95c8.8,0,11.94,3.9,11.94,7.55,0,9.78-21.63,15.3-35.02,17.79-.3-1.36-.56-2.95-.56-4.73,0-13.53,11.89-20.61,23.64-20.61Z"/>
  <path class="st2" d="M418.24,150.62c-11.03,7.82-21.02,11.47-31.46,11.47-8.11,0-14.32-2.33-18.05-6.74,19.69-3.29,41.73-9.21,41.73-25.15,0-10.12-8.07-16.16-21.59-16.16-16.91,0-34.02,10.21-34.02,29.74,0,16.79,12.45,27.65,31.72,27.65,11.38,0,22.3-3.45,32.45-10.25l.31-.21v-11.12l-1.1.78ZM388.46,122.95c8.8,0,11.94,3.9,11.94,7.55,0,9.78-21.63,15.3-35.02,17.79-.3-1.36-.56-2.95-.56-4.73,0-13.53,11.89-20.61,23.64-20.61Z"/>
  <rect class="st0" x="26.78" y="95.45" width="84.2" height="84.2" rx="17.29" ry="17.29"/>
  <path class="st1" d="M68.88,127.05c-10.98,0-19.92-8.94-19.92-19.92h10.78c0,5.04,4.1,9.14,9.14,9.14s9.14-4.1,9.14-9.14h10.78c0,10.98-8.94,19.92-19.92,19.92Z"/>
  <path class="st1" d="M88.8,167.96h-10.78c0-5.04-4.1-9.14-9.14-9.14s-9.14,4.1-9.14,9.14h-10.78c0-10.98,8.94-19.92,19.92-19.92s19.92,8.94,19.92,19.92Z"/>
  <path class="st1" d="M38.47,157.47v-10.78c5.04,0,9.14-4.1,9.14-9.14s-4.1-9.14-9.14-9.14v-10.78c10.98,0,19.92,8.94,19.92,19.92s-8.94,19.92-19.92,19.92Z"/>
  <path class="st1" d="M99.3,157.47c-10.98,0-19.92-8.94-19.92-19.92s8.94-19.92,19.92-19.92v10.78c-5.04,0-9.14,4.1-9.14,9.14s4.1,9.14,9.14,9.14v10.78Z"/>
  <circle class="st1" cx="68.88" cy="137.55" r="5.16"/>
</svg>