<?xml version="1.0" encoding="UTF-8"?>
<svg id="Layer_1" xmlns="http://www.w3.org/2000/svg" version="1.1" viewBox="0 0 566.93 566.93">
  <!-- Generator: Adobe Illustrator 29.4.0, SVG Export Plug-In . SVG Version: 2.1.0 Build 152)  -->
  <defs>
    <style>
      .st0 {
        fill: #fff;
      }

      .st1 {
        fill: #0f385a;
      }
    </style>
  </defs>
  <rect class="st1" x="55.73" y="56.69" width="453.54" height="453.54" rx="93.16" ry="93.16"/>
  <path class="st0" d="M282.51,226.93c-59.16,0-107.29-48.13-107.29-107.29h58.08c0,27.13,22.08,49.21,49.21,49.21s49.21-22.08,49.21-49.21h58.08c0,59.16-48.13,107.29-107.29,107.29Z"/>
  <path class="st0" d="M389.8,447.29h-58.08c0-27.13-22.08-49.21-49.21-49.21s-49.21,22.08-49.21,49.21h-58.08c0-59.16,48.13-107.29,107.29-107.29s107.29,48.13,107.29,107.29Z"/>
  <path class="st0" d="M118.68,390.76v-58.08c27.13,0,49.21-22.08,49.21-49.21s-22.08-49.21-49.21-49.21v-58.08c59.16,0,107.29,48.13,107.29,107.29s-48.13,107.29-107.29,107.29Z"/>
  <path class="st0" d="M446.34,390.76c-59.16,0-107.29-48.13-107.29-107.29s48.13-107.29,107.29-107.29v58.08c-27.13,0-49.21,22.08-49.21,49.21s22.08,49.21,49.21,49.21v58.08Z"/>
  <circle class="st0" cx="282.51" cy="283.46" r="27.8"/>
</svg>